<mxfile host="Electron" agent="Mozilla/5.0 (Windows NT 10.0; Win64; x64) AppleWebKit/537.36 (KHTML, like Gecko) draw.io/24.7.17 Chrome/128.0.6613.36 Electron/32.0.1 Safari/537.36" version="24.7.17">
  <diagram id="C5RBs43oDa-KdzZeNtuy" name="Page-1">
    <mxGraphModel dx="1434" dy="836" grid="1" gridSize="10" guides="1" tooltips="1" connect="1" arrows="1" fold="1" page="1" pageScale="1" pageWidth="827" pageHeight="1169" math="0" shadow="0">
      <root>
        <mxCell id="WIyWlLk6GJQsqaUBKTNV-0" />
        <mxCell id="WIyWlLk6GJQsqaUBKTNV-1" parent="WIyWlLk6GJQsqaUBKTNV-0" />
        <mxCell id="ubMtMo-s93hl-G5pGt9r-2" value="" style="edgeStyle=orthogonalEdgeStyle;rounded=0;orthogonalLoop=1;jettySize=auto;html=1;" edge="1" parent="WIyWlLk6GJQsqaUBKTNV-1" source="ubMtMo-s93hl-G5pGt9r-0" target="ubMtMo-s93hl-G5pGt9r-1">
          <mxGeometry relative="1" as="geometry" />
        </mxCell>
        <mxCell id="ubMtMo-s93hl-G5pGt9r-0" value="Bắt đầu" style="ellipse;whiteSpace=wrap;html=1;" vertex="1" parent="WIyWlLk6GJQsqaUBKTNV-1">
          <mxGeometry x="370" y="90" width="120" height="80" as="geometry" />
        </mxCell>
        <mxCell id="ubMtMo-s93hl-G5pGt9r-4" value="" style="edgeStyle=orthogonalEdgeStyle;rounded=0;orthogonalLoop=1;jettySize=auto;html=1;" edge="1" parent="WIyWlLk6GJQsqaUBKTNV-1" source="ubMtMo-s93hl-G5pGt9r-1" target="ubMtMo-s93hl-G5pGt9r-3">
          <mxGeometry relative="1" as="geometry" />
        </mxCell>
        <mxCell id="ubMtMo-s93hl-G5pGt9r-1" value="số thứ 1, số thuws2, tổng" style="whiteSpace=wrap;html=1;" vertex="1" parent="WIyWlLk6GJQsqaUBKTNV-1">
          <mxGeometry x="370" y="260" width="120" height="60" as="geometry" />
        </mxCell>
        <mxCell id="ubMtMo-s93hl-G5pGt9r-6" value="" style="edgeStyle=orthogonalEdgeStyle;rounded=0;orthogonalLoop=1;jettySize=auto;html=1;" edge="1" parent="WIyWlLk6GJQsqaUBKTNV-1" source="ubMtMo-s93hl-G5pGt9r-3" target="ubMtMo-s93hl-G5pGt9r-5">
          <mxGeometry relative="1" as="geometry" />
        </mxCell>
        <mxCell id="ubMtMo-s93hl-G5pGt9r-3" value="nhập số thứ 1, số thứ 2" style="shape=parallelogram;perimeter=parallelogramPerimeter;whiteSpace=wrap;html=1;fixedSize=1;" vertex="1" parent="WIyWlLk6GJQsqaUBKTNV-1">
          <mxGeometry x="350" y="400" width="160" height="60" as="geometry" />
        </mxCell>
        <mxCell id="ubMtMo-s93hl-G5pGt9r-8" value="" style="edgeStyle=orthogonalEdgeStyle;rounded=0;orthogonalLoop=1;jettySize=auto;html=1;" edge="1" parent="WIyWlLk6GJQsqaUBKTNV-1" source="ubMtMo-s93hl-G5pGt9r-5" target="ubMtMo-s93hl-G5pGt9r-7">
          <mxGeometry relative="1" as="geometry" />
        </mxCell>
        <mxCell id="ubMtMo-s93hl-G5pGt9r-5" value="tổng= số thứ 1 + số thứ 2" style="whiteSpace=wrap;html=1;" vertex="1" parent="WIyWlLk6GJQsqaUBKTNV-1">
          <mxGeometry x="370" y="540" width="120" height="60" as="geometry" />
        </mxCell>
        <mxCell id="ubMtMo-s93hl-G5pGt9r-10" value="" style="edgeStyle=orthogonalEdgeStyle;rounded=0;orthogonalLoop=1;jettySize=auto;html=1;" edge="1" parent="WIyWlLk6GJQsqaUBKTNV-1" source="ubMtMo-s93hl-G5pGt9r-7" target="ubMtMo-s93hl-G5pGt9r-9">
          <mxGeometry relative="1" as="geometry" />
        </mxCell>
        <mxCell id="ubMtMo-s93hl-G5pGt9r-7" value="hiển thị tổng" style="shape=parallelogram;perimeter=parallelogramPerimeter;whiteSpace=wrap;html=1;fixedSize=1;" vertex="1" parent="WIyWlLk6GJQsqaUBKTNV-1">
          <mxGeometry x="370" y="680" width="120" height="60" as="geometry" />
        </mxCell>
        <mxCell id="ubMtMo-s93hl-G5pGt9r-9" value="" style="ellipse;whiteSpace=wrap;html=1;" vertex="1" parent="WIyWlLk6GJQsqaUBKTNV-1">
          <mxGeometry x="370" y="780" width="120" height="80" as="geometry" />
        </mxCell>
      </root>
    </mxGraphModel>
  </diagram>
</mxfile>
